#!OML:ASF H:\Terrain\Patient Classification 1\Animal1\Tuesday\Animal1.ASF
:FULLY-SPECIFIED
:DEGREES
1527
root 15.5714 15.9861 -23.8553 -173.623 -163.471 -177.165
lowerback -6.23465 -0.395022 0.757826
upperback -8.80993 -0.60004 0.201259
thorax -5.67474 -0.366862 -0.218352
lowerneck -2.67437 -7.11656 -8.48859
upperneck 8.72762 -9.30404 2.38186
head 3.92953 -4.81592 1.85315
rclavicle -1.59028e-014 -3.18055e-015
rhumerus -67.0562 64.6112 -98.1048
rradius 92.7863
rwrist -45.7693
rhand -7.39682 19.8624
rfingers 7.12502
rthumb 18.4891 -9.27897
lclavicle -1.59028e-014 -3.18055e-015
lhumerus -32.9345 6.0696 47.6873
lradius 49.546
lwrist -8.80461
lhand 1.93803 47.5453
lfingers 7.12502
lthumb 27.4453 -1004.43
rfemur -15.8946 32.6307 8.07766
rtibia 26.2959
rfoot -48.3302 -37.4365
rtoes 45.6359
lfemur -3.09246 -39.7785 -17.3373
ltibia 13.2786
lfoot -40.8389 37.0055
ltoes 34.7482
1528
root 15.5662 15.9807 -23.8401 -173.42 -163.25 -177.559
lowerback -6.53424 -0.354082 0.971772
upperback -8.99879 -0.552529 0.2983
thorax -5.7108 -0.355022 -0.237476
lowerneck -2.55282 -7.11044 -8.46337
upperneck 8.78462 -9.30111 2.27958
head 3.91758 -4.82004 1.81782
rclavicle -2.69353e-014 -9.54166e-015
rhumerus -66.003 64.0611 -97.1531
rradius 91.0175
rwrist -45.3475
rhand -7.59177 18.6482
rfingers 7.12502
rthumb 18.3016 -10.5108
lclavicle -2.69353e-014 -9.54166e-015
lhumerus -33.6469 8.05606 47.67
lradius 49.3802
lwrist -8.64613
lhand 0.88242 47.3309
lfingers 7.12502
lthumb 26.4353 -1004.49
rfemur -15.9304 33.0689 8.43547
rtibia 26.1418
rfoot -48.5667 -37.4983
rtoes 45.7723
lfemur -3.21016 -40.427 -17.0357
ltibia 13.7276
lfoot -42.3702 36.8985
ltoes 36.1373
1529
root 15.556 15.9766 -23.8291 -173.308 -162.889 -177.838
lowerback -6.72066 -0.241539 1.01008
upperback -9.11824 -0.406808 0.325673
thorax -5.73331 -0.285242 -0.228728
lowerneck -2.56692 -7.21189 -8.22894
upperneck 8.75658 -9.43051 2.05905
head 3.88781 -4.88395 1.69516
rclavicle -2.14687e-014 7.15625e-015
rhumerus -64.4799 63.327 -95.9493
rradius 88.877
rwrist -44.9466
rhand -7.07273 18.3529
rfingers 7.12502
rthumb 18.8009 -10.7585
lclavicle -2.14687e-014 7.15625e-015
lhumerus -34.2684 9.97351 47.6715
lradius 49.3102
lwrist -8.52681
lhand -0.128464 46.4665
lfingers 7.12502
lthumb 25.4673 -1005.22
rfemur -15.9631 33.4157 8.68607
rtibia 25.9844
rfoot -48.1021 -38.0273
rtoes 45.0853
lfemur -3.16951 -41.3435 -16.9639
ltibia 14.1653
lfoot -44.3383 36.9275
ltoes 38.0886
1530
root 15.546 15.975 -23.8176 -173.32 -162.731 -177.954
lowerback -6.85499 -0.192899 0.930152
upperback -9.24343 -0.34421 0.297671
thorax -5.79183 -0.251623 -0.21221
lowerneck -2.57154 -7.30641 -8.14212
upperneck 8.88831 -9.55917 1.99077
head 3.93288 -4.95003 1.64718
rclavicle -1.96797e-014 2.78299e-015
rhumerus -63.0535 62.4605 -94.8734
rradius 86.602
rwrist -44.4667
rhand -7.00606 18.3363
rfingers 7.12502
rthumb 18.865 -10.7689
lclavicle -1.96797e-014 2.78299e-015
lhumerus -35.1973 11.6666 47.7141
lradius 49.7057
lwrist -8.32924
lhand -0.496886 46.3596
lfingers 7.12502
lthumb 25.1144 -1005.27
rfemur -15.8433 33.7958 8.83236
rtibia 25.8522
rfoot -48.4892 -37.9333
rtoes 45.1322
lfemur -3.04455 -42.2747 -17.0741
ltibia 14.5316
lfoot -46.0253 36.9191
ltoes 39.6623
1531
root 15.5425 15.9723 -23.8024 -173.325 -162.932 -178.04
lowerback -7.06991 -0.278756 0.934458
upperback -9.37694 -0.462864 0.289341
thorax -5.81708 -0.312957 -0.225897
lowerneck -2.54445 -7.34562 -8.28584
upperneck 9.07395 -9.613 2.02694
head 4.00958 -4.98435 1.67865
rclavicle 3.49861e-014 9.93923e-015
rhumerus -61.6955 61.6026 -93.786
rradius 84.3995
rwrist -43.7771
rhand -7.4683 17.4509
rfingers 7.12502
rthumb 18.4204 -11.697
lclavicle 3.49861e-014 9.93923e-015
lhumerus -36.3089 13.0979 47.8098
lradius 50.1128
lwrist -7.9151
lhand -0.714659 46.6106
lfingers 7.12502
lthumb 24.9057 -1004.99
rfemur -15.6096 34.0285 9.00509
rtibia 25.7582
rfoot -49.8634 -37.0361
rtoes 46.35
lfemur -3.04251 -42.8936 -17.0821
ltibia 14.7811
lfoot -46.5244 37.1896
ltoes 39.7847
1532
root 15.539 15.9703 -23.7911 -173.282 -163.072 -178.073
lowerback -7.30037 -0.327048 0.903419
upperback -9.51773 -0.53273 0.230605
thorax -5.8414 -0.349721 -0.271916
lowerneck -2.70716 -7.45829 -8.49006
upperneck 9.29392 -9.7593 2.21034
head 4.1564 -5.05975 1.75673
rclavicle -1.91827e-014 -2.38542e-015
rhumerus -60.2239 60.5957 -92.681
rradius 82.0467
rwrist -42.9833
rhand -7.92974 16.8479
rfingers 7.12502
rthumb 17.9764 -12.3413
lclavicle -1.91827e-014 -2.38542e-015
lhumerus -37.4173 13.6008 48.0819
lradius 50.4422
lwrist -6.74382
lhand -1.8604 46.9349
lfingers 7.12502
lthumb 23.8073 -1004.52
rfemur -15.5136 34.0298 9.08005
rtibia 25.6817
rfoot -50.0649 -36.7841
rtoes 46.8826
lfemur -3.12068 -43.3339 -17.0678
ltibia 14.9576
lfoot -46.5729 37.6905
ltoes 39.3009
1533
root 15.531 15.9724 -23.7826 -173.202 -163.011 -178.132
lowerback -7.49347 -0.288231 0.857118
upperback -9.65823 -0.487297 0.136271
thorax -5.88543 -0.329412 -0.343978
lowerneck -3.15947 -7.67285 -8.65881
upperneck 10.0475 -10.0586 2.66879
head 4.10071 -5.18678 1.69896
rclavicle 3.72721e-014 1.63003e-014
rhumerus -58.696 59.3601 -91.5856
rradius 79.6272
rwrist -42.3442
rhand -8.25553 16.6714
rfingers 7.12502
rthumb 17.663 -12.5463
lclavicle 3.72721e-014 1.63003e-014
lhumerus -38.3962 14.4681 48.2629
lradius 50.6373
lwrist -5.97583
lhand -2.79302 47.3751
lfingers 7.12502
lthumb 22.9126 -1003.97
rfemur -15.5315 34.0518 9.11753
rtibia 25.5918
rfoot -49.5728 -36.9596
rtoes 46.7488
lfemur -3.15739 -43.9337 -17.0443
ltibia 15.1361
lfoot -47.4417 37.7783
ltoes 39.8623
1534
root 15.52 15.9717 -23.7698 -173.089 -162.968 -178.359
lowerback -7.72019 -0.263044 0.905977
upperback -9.75147 -0.459402 0.135216
thorax -5.85992 -0.319784 -0.372795
lowerneck -3.59337 -7.8592 -8.66275
upperneck 10.3952 -10.282 2.70563
head 4.29363 -5.29537 1.67041
rclavicle -4.49253e-014 -6.75868e-015
rhumerus -57.1126 58.1486 -90.329
rradius 77.2855
rwrist -41.7325
rhand -8.69447 16.4936
rfingers 7.12502
rthumb 17.2405 -12.7616
lclavicle -4.49253e-014 -6.75868e-015
lhumerus -39.4054 15.9325 48.3472
lradius 50.9941
lwrist -5.61765
lhand -2.61594 48.1909
lfingers 7.12502
lthumb 23.0825 -1003.17
rfemur -15.4757 34.279 9.36368
rtibia 25.4862
rfoot -50.1038 -36.7957
rtoes 46.8844
lfemur -3.10508 -44.5881 -16.9072
ltibia 15.3383
lfoot -48.6707 37.6958
ltoes 40.6263
1535
root 15.5096 15.9656 -23.7529 -173.074 -162.98 -178.587
lowerback -7.9955 -0.296175 0.993416
upperback -9.74203 -0.509569 0.163239
thorax -5.6973 -0.349176 -0.395943
lowerneck -3.73333 -7.94643 -8.5036
upperneck 10.3501 -10.3795 2.53607
head 4.29112 -5.3433 1.58394
rclavicle 1.26228e-014 3.57812e-015
rhumerus -55.1894 56.9972 -88.845
rradius 74.7184
rwrist -40.7646
rhand -8.88731 16.5171
rfingers 7.12502
rthumb 17.0549 -12.7542
lclavicle 1.26228e-014 3.57812e-015
lhumerus -40.4575 17.2289 48.4479
lradius 51.3035
lwrist -5.0392
lhand -2.60207 49.1619
lfingers 7.12502
lthumb 23.0958 -1002.2
rfemur -15.2385 34.5019 9.71165
rtibia 25.3702
rfoot -50.9467 -36.2244
rtoes 47.6681
lfemur -2.89348 -45.0938 -16.9109
ltibia 15.5652
lfoot -49.4515 37.8714
ltoes 40.8505
1536
root 15.4984 15.9623 -23.7383 -173.128 -163.002 -178.736
lowerback -8.16061 -0.380064 1.01714
upperback -9.75199 -0.623625 0.202062
thorax -5.61764 -0.406464 -0.373465
lowerneck -3.86643 -7.98744 -8.35859
upperneck 10.4116 -10.4084 2.28828
head 4.31297 -5.36367 1.47874
rclavicle -3.47873e-015 -1.51076e-014
rhumerus -53.2325 55.7642 -87.453
rradius 71.9844
rwrist -39.6918
rhand -8.72088 16.1247
rfingers 7.12502
rthumb 17.2151 -13.1328
lclavicle -3.47873e-015 -1.51076e-014
lhumerus -41.399 19.0929 48.3076
lradius 50.9591
lwrist -5.16589
lhand -3.02421 49.8543
lfingers 7.12502
lthumb 22.6907 -1001.46
rfemur -14.9771 34.5879 10.0148
rtibia 25.2902
rfoot -51.138 -35.9635
rtoes 48.1298
lfemur -2.66006 -45.6077 -16.9815
ltibia 15.7269
lfoot -49.8461 38.2885
ltoes 40.6627
